<?xml version="1.0" encoding="UTF-8"?>
<svg id="Layer_1" data-name="Layer 1" xmlns="http://www.w3.org/2000/svg" viewBox="0 0 1603.49 1191.26">
  <defs>
    <style>
      .cls-1 {
        fill: #c8c8c8;
      }

      .cls-1, .cls-2 {
        fill-rule: evenodd;
      }

      .cls-2 {
        fill: #ca272d;
      }
    </style>
  </defs>
  <path class="cls-1" d="m1323.82,882.99l-19.03.42s12.81,10.76,72.02,69.97c93.9,93.91,225.09,85.3,225.09,85.3v152.58h-450.7l-302.61-292.53h-318.3v58.39c1.35,18.92-12.75,81.57,85.28,81.57v152.52l-540.55.05s-.38-151.75,0-151.75c104.58,0,104.58-96.9,104.58-96.9v-246.78c0-126.53-104.58-124.2-104.58-124.2v-154.08h1138.43s302.87-11.83,302.87,222.7-192.5,242.73-192.5,242.73h0Zm-219.77-182.47s56.42,3.32,56.42-40.7-56.42-38.84-56.42-38.84l-571.27-.1.44,79.56,570.83.09h0ZM843.46.39v78.4h291.13v284.22h198.77V78.79h270.13V.39h-760.04,0ZM0,204.4c0,170.81,232.28,158.61,296.16,158.61h488.51v-226.82h-363.94v53.2h167.97v109.22h-292.53s-103.58-1.41-103.58-109.22,103.58-110.61,103.58-110.61h488.51V.39h-488.51S.05-15.27.05,151.98l-.05,52.42h0Z"/>
  <path class="cls-2" d="m1233.39,847.57h-42.53s68.55,58.05,145.94,135.46c84.86,84.87,218.01,99.74,218.01,99.74v58.8h-383.52l-300.94-294.01h-384.94v133s0,102.2,82.58,102.2v58.8H124.29s-.35-58.8,0-58.8c97.99,0,97.99-102.2,97.99-102.2v-320.63c0-110.61-97.99-124.6-97.99-124.6v-62.99h1066.58s272.95-17.41,272.95,187.61c-.01,199.84-230.43,187.62-230.43,187.62h0Zm-112.77-98.14s86.78,0,86.78-89.6-89.6-88.21-89.6-88.21H485.12v177.8h635.5Z"/>
</svg>