<?xml version="1.0" encoding="UTF-8"?>
<svg id="Layer_2" data-name="Layer 2" xmlns="http://www.w3.org/2000/svg" viewBox="0 0 917.23 621.59">
  <defs>
    <style>
      .cls-1, .cls-2 {
        fill: #fff;
      }

      .cls-3 {
        fill: #ed1c24;
      }

      .cls-2, .cls-4, .cls-5 {
        stroke: #000;
        stroke-miterlimit: 10;
        stroke-width: .5px;
      }

      .cls-4, .cls-6 {
        fill: #ccc;
      }

      .cls-7 {
        fill: #ca272d;
      }

      .cls-7, .cls-6 {
        fill-rule: evenodd;
      }

      .cls-5 {
        fill: none;
      }
    </style>
  </defs>
  <rect class="cls-1" width="917.23" height="530.65"/>
  <path id="Main_body" data-name="Main body" class="cls-5" d="m446.62,484.29c-1.51-20.7,4.62-63.02,13.45-91.18,11.91-37.98,62.81-66.96,81.64-7.44,4.46,14.09,1.91,39.16,0,60.95,0,0-4.76,5.99-5.34,8.59s-.72,10.4,5.2,14.45c0,0,165.08-32.57,188.96-35.45,0,0,1.44-3.57,0-4.83s-5.92-.92-5.46-2.64,4.07-1.43,7.21-11.25c0,0,11.96-77.1,36.86-81.14,23.3-3.78,22.43,38.16,21.87,43.73,0,0-2.46,12.4-1.35,35.95,0,0,10.03-2.37,19.79-15.33,0,0,.84-1.81-6.41-7.38,0,0,6.97-5.29,7.66-8.22,0,0-.84-6.13-1.95-7.8l5.65-6.27s1.84-29.18,1.02-31.63c0,0-2.51.33-3.27-.17s.52-53.32-13.51-57.69l-37.84-3.87s-8.82,0-19.19-4.32c0,0-63.8-50.66-75.39-52.56s-74.82-17.44-233.03-8.58c0,0-17.58,1.99-39.12,15.42-26.53,16.54-56.63,35.51-80.94,55.5,0,0-141.41,20.87-183.86,45.36,0,0-4.62,2.03-8.11,7.95-3.27,5.54-5.02,12.46-4.53,23.27,0,0-6.52,8.16-17.05,11.3-.74.22,0,34,0,34,0,0-3.51-.49-4.19-.1s6.16,51.21,13.17,53.01c0,0,151.91,40.86,338.08,28.38Z"/>
  <path id="Front_wing" data-name="Front wing" class="cls-5" d="m108.54,455.91l-7.6,4.19s26.3,33.59,272.66,38.19c41.3.77,48.36-1.15,73.01-5.04,0,0,1.64-9.06,0-8.96-193.71,11.73-338.08-28.38-338.08-28.38Z"/>
  <g id="Grill">
    <path class="cls-5" d="m133.99,398.25s113.63,7.11,117.58,9.05c4.3,2.1,10.98,34.07,5.86,51.7-1.67,5.74-116.69-13.79-118.38-15.23-1.82-1.56-7.53-44.94-5.07-45.52Z"/>
    <line class="cls-5" x1="153.56" y1="399.44" x2="155.07" y2="447.04"/>
    <line class="cls-5" x1="153.64" y1="401.91" x2="252.91" y2="409.4"/>
    <polyline class="cls-5" points="153.99 404.9 254.61 412.47 255.36 415.48 154.08 407.86 154.22 412.22 256.24 419.85 257.09 425.13 154.36 416.73 154.47 420.16 257.61 429.17 257.99 432.77 154.57 423.21 154.57 427.17 257.99 436.82 258.57 440.56 154.81 430.9 154.92 434.17 258.57 444.14 258.57 447.1 155.01 437.13 155.12 440.4 258.57 450.21 258.57 453.32 155.19 442.73 155.26 445.07 258.43 456.01"/>
  </g>
  <path id="Mirror_1" data-name="Mirror 1" class="cls-5" d="m320.54,261.6s10.62-1.62,14.08,4.28l-21.5,16.46s-2.62-4.47-1.87-11.61c.43-4.1,1.92-7.49,9.28-9.13Z"/>
  <path id="Windscreen" class="cls-4" d="m319.03,281.14c-.25,0-.35-.32-.15-.46,6.13-4.54,57.32-41.59,86.11-56.16,2.55-1.29,5.66-4.33,28.82-4.61,0,0,73.85-1.93,128.88,2.64,7.05.58,10.4,3.1,7.38,9.81s-23.49,55.65-26.92,58.21c-2.69,2.01-9.29,1.59-11.21,1.42-.26-.02-.78-.33-.96-.52-.44-.45-1.8-1.12-7.88-.99,0,0,0,0-.02,0-.71-.05-110.77-7.94-204.05-9.33Z"/>
  <g id="Spoiler">
    <path class="cls-5" d="m762.63,275.82s-4.22-3.21-5.07-4.43c-.3-.44-.47-.96-.47-1.49v-11.95c0-1.45,1.19-2.62,2.64-2.6,4.71.07,14.42.18,18.1-.02,3.89-.22,5.83,1.13,6.52,1.65.28.21.47.34.73.45,8.81,3.78,13.23,1.98,14.39,1.48s5.07-5.07,2.7-7.1c-1.55-1.33-1.5-4.77-1.29-6.98.13-1.34-.75-2.58-2.07-2.82-1.61-.29-4.11-.32-7.64.73-.24.07-.49.11-.74.11-4.96-.05-58.18-.6-87.44-1.01l18.11,13.54,23.65-.1s-1.91,13.5-6.91,13.04c0,0,5.19,6.32,24.79,7.51Z"/>
    <path class="cls-5" d="m791.5,242.64s-5.9,2.65-7.95,6.03.25,7.52.25,7.52"/>
  </g>
  <g id="Windows">
    <path class="cls-4" d="m568.19,290.86c-1.83.02-2.46-1.85-1.69-3.51l27.71-57.83c1.18-2.42,3.42-4.14,6.06-4.66,6.13-1.21,20.51-2.5,50.57-.84,18.73,1.03,32.07,9.58,68.59,51.19.92,1.05.65,2.79-.64,3.3-7.99,3.16-32.03,11.18-150.59,12.36Z"/>
    <path class="cls-2" d="m650.48,224.86c15.25,15.66,36.27,60.45,36.27,60.45l-10.45,1.15c-9.88-30.74-37.39-62.98-37.39-62.98l9.16.38c1.68.1,1.4-.03,2.4,1Z"/>
  </g>
  <path id="Mirror_2" data-name="Mirror 2" class="cls-2" d="m577.15,264.77s1.89-.61,2.59,3.59c0,0,4-.2,2.2,5.9s-2.16,7.3-2.16,7.3c0,0,3.96.6,3.56,3.2h3s5.5-15.7,11.2-16.7,25.8-1.1,27.9-.7,4.4.9,6.4,5.1,1.6,16.05-1.39,16.53c-4.55.73-62.25,1.51-62.25,1.51,0,0-2.85-.2-1.69-3.51l10.64-22.21Z"/>
  <path class="cls-5" d="m472.23,372.15s-127.69,12.36-189.87,6c-1.42-.14-2.4-1.48-2.11-2.88l3.93-18.81c.31-1.51.07-3.3-.44-4.75-.56-1.58,1.02-4.6-40.32-7.94-35.06-2.83-85.68-4.33-97.5-4.76-1.48-.05-2.79.94-3.14,2.38l-4.94,20.34c-.36,1.49-1.74,2.52-3.27,2.42-4.35-.27-13-1.3-17.95-5.23"/>
  <path class="cls-5" d="m282.82,350.1s71.51-45.46,224.99-60.66"/>
  <line class="cls-5" x1="130.65" y1="326.93" x2="143.79" y2="339.77"/>
  <path class="cls-5" d="m99.56,370.23s39.56,17.73,158.34,22.1,178.42-6,187.07-8.19"/>
  <path class="cls-5" d="m142.91,377.07c-2.32-.36-3.96-2.46-3.77-4.8l.87-10.7,1.66-12.58c.54-2.23,2.48-2.89,4.74-2.73l19.27-.02c25.07,0,58.84,3.45,75.5,6.15l21.17,3.53c1.42.1,2.74.83,2.27,2.19l-8.27,24.93c-.87,2.5-2.23,4.32-4.87,4.19-14.86-.71-64.47-3.36-108.58-10.16Z"/>
  <path class="cls-5" d="m280.58,377.03l-9.6,6.07c-3.14,1.98-6.83,2.91-10.53,2.62l-5.02-.38"/>
  <path class="cls-5" d="m264.51,357.14l19.24-5.42s85.44-17.23,106.21-8.43c0,0,21.92,10.61,6.4,34.49"/>
  <path class="cls-5" d="m188.83,321.06l106.23,5.77c1.31.07,2.61-.1,3.85-.52l88.26-29.31c.23-.08,1.19-.38.94-.39l-115.24-4.45c-.4-.02-.81.02-1.2.11l-61.91,13.57-21.2,14.28c-.41.27-.23.91.26.94Z"/>
  <polyline class="cls-5" points="209.77 305.84 304.15 310.94 363.18 295.64"/>
  <polyline class="cls-5" points="218.9 306.33 223.69 302.79 317.14 307.57"/>
  <polyline class="cls-5" points="232.49 303.24 239.11 299.41 329.3 304.42"/>
  <polyline class="cls-5" points="249.66 299.99 255.34 296.02 342.35 301.04"/>
  <polyline class="cls-5" points="262.31 296.43 265.94 293.53 353.32 298.2"/>
  <line class="cls-5" x1="387.17" y1="297" x2="396.88" y2="293.53"/>
  <line class="cls-5" x1="272.88" y1="292.16" x2="289.84" y2="289.43"/>
  <path class="cls-5" d="m321.57,399.76h22.58c4.1,0,7.42,3.32,7.42,7.42v6.6c0,3.26-2.62,5.93-5.88,5.98l-24.25.41c-3.22.05-5.87-2.54-5.87-5.77v-8.64c0-3.31,2.69-6,6-6Z"/>
  <path class="cls-5" d="m99.24,378.97l5.84,2.83c2.59.88,4.56,3.12,4.9,5.83.16,1.3.03,2.62-.38,3.86-1.03,3.09-4.13,5-7.38,4.8l-2.82-1.01"/>
  <path class="cls-5" d="m139.93,375.48l11.63-5.25s48.86,12.85,105.67,10.47"/>
  <path class="cls-5" d="m151.56,370.23l1.89-18.87c.06-.58.57-1.01,1.15-.95,6.96.69,48.14,4.62,110.03,7.97"/>
  <line class="cls-5" x1="99.56" y1="404.23" x2="134.64" y2="418.22"/>
  <path class="cls-5" d="m139.06,443.76s-1.03,3.91-8.22,1.52c0,0-21.31-8.82-32.33-18.19"/>
  <path class="cls-5" d="m728.91,422.42c-50,1.64-187.2,25.43-187.2,25.43"/>
  <path class="cls-5" d="m543.75,422.42l.6-.12c7.74-1.57,15.51.53,22.27,4.61.55.34,1.24.5,2.08.41,4.5-.47,75.74-10.79,99.59-14.25,6.22-.9,11.99-3.79,16.39-8.28,6.06-6.19,13.25-16.4,14.37-30.69,1.99-25.33,7.8-40.41,3.9-62.61s-16.19-26.18-16.19-26.18"/>
  <path class="cls-5" d="m573.5,290.86s-10.01,20.38-7.32,46.67c4.1,40.01-.58,90.35-3.15,87.47"/>
  <path class="cls-5" d="m571.5,295.74s-122.68,14.23-191.8,45.05"/>
  <path class="cls-5" d="m257.07,432.76h100.13s7.91,1.44,6.9,7.5-2.53,18.69-5.39,20.71-96.82,2.02-96.82,2.02c0,0-4.8-.91-4.46-4"/>
  <path class="cls-5" d="m133.38,445.92s53.21,19.32,128.52,17.07"/>
  <path class="cls-5" d="m351.82,485.52s6.16-7.99,6.89-24.55"/>
  <path class="cls-5" d="m137.51,447.04s6.28,8.61-1.36,15.39"/>
  <path class="cls-5" d="m257.33,463.17s-5.89,12.03,3.13,17.87"/>
  <path class="cls-5" d="m460.07,394.34s-25.53-1.76-34.52,13.22c-6.71,11.18-13.42,31.53-16.39,41.15-.98,3.16,1.1,6.44,4.39,6.9,5.36.74,15.35,1.27,33.81.3"/>
  <ellipse class="cls-5" cx="499.07" cy="435.76" rx="32" ry="60.5"/>
  <path class="cls-5" d="m486.66,366.15c9.28-5.19,20.75-4.04,28.93,2.75,7.64,6.34,16.33,16.97,19.32,33.75,5.73,32.22-1.37,60.34-1.37,60.34,0,0-11.74,34.14-27.58,39.33-5.77,1.89-6.43,2.3-9.62,2.57-7.6.64-12.7-.43-15.97-3.6-5.57-5.42-14.78-17.17-20.3-39.16-7.24-28.79-3.94-78.92,26.59-95.98Z"/>
  <ellipse class="cls-5" cx="490.07" cy="432.26" rx="11" ry="16"/>
  <path class="cls-5" d="m481.56,384.4s24.13-9.68,37.27,24.44c9.08,23.57-3.06,48.5-10.65,60.71-3.73,6.01-10.1,9.99-17.16,10.42-6.46.4-13.95-1.2-18.08-9.18"/>
  <polyline class="cls-5" points="498.99 385.04 485.61 416.35 484.82 418.37"/>
  <line class="cls-5" x1="495.39" y1="418.37" x2="502.19" y2="386.64"/>
  <line class="cls-5" x1="496.99" y1="419.99" x2="519.9" y2="411.94"/>
  <line class="cls-5" x1="500.88" y1="433.99" x2="522" y2="424.06"/>
  <line class="cls-5" x1="515.72" y1="455.09" x2="500.34" y2="436.24"/>
  <line class="cls-5" x1="492.3" y1="447.85" x2="510.83" y2="465.06"/>
  <line class="cls-5" x1="490.1" y1="447.85" x2="488.3" y2="480.01"/>
  <line class="cls-5" x1="481.46" y1="441.93" x2="478.06" y2="476.64"/>
  <line class="cls-5" x1="480.58" y1="439.49" x2="467.61" y2="448.45"/>
  <line class="cls-5" x1="479.32" y1="429.03" x2="466.85" y2="437.61"/>
  <line class="cls-5" x1="479.76" y1="427.66" x2="468.28" y2="417.41"/>
  <line class="cls-5" x1="483.46" y1="419.7" x2="469.75" y2="410.14"/>
  <path class="cls-5" d="m496.69,504.86s-26.2,4.26-61.62-3c-2.27-.47-4.33-1.71-5.71-3.57-.48-.64-.94-1.36-1.33-2.12"/>
  <line class="cls-5" x1="737.02" y1="393.55" x2="690.14" y2="398.25"/>
  <path class="cls-5" d="m746,362.96s-169.85,13.71-193.47,20.17"/>
  <line class="cls-5" x1="787.1" y1="346.95" x2="811.83" y2="333.56"/>
  <g>
    <ellipse class="cls-5" cx="769.07" cy="394.76" rx="19.5" ry="44"/>
    <path class="cls-5" d="m789.52,412.04s-1.28,23.83-17.61,35.81-28.88-26.28-28.88-26.28c0,0-7.7-27.2-2.53-42.25l3.98-12.19s3.13-13.3,12.44-20.03c7.83-5.66,8.92-5.59,13.49-5.26,9.94.7,17.74,12.88,20.09,31.96.4,3.23.39,6.51.03,9.75l-.91,8.17-.1,20.31Z"/>
  </g>
  <path class="cls-5" d="m758.71,431.71s10.58,7.01,21.16-25.16-3.26-45.64-3.97-46.52c-.47-.59-3.71-3.16-7.57-4.17s-8.18-.43-8.18-.43c0,0-3.45,4.54-4.46,7.33s-5.47,12.09-5.77,23.67-.37,32.06,8.79,45.28Z"/>
  <path class="cls-5" d="m767.96,392.72c0,5.6-4.04,10.15-9.02,10.15s-6.77-4.54-6.77-10.15,1.79-10.15,6.77-10.15,9.02,4.54,9.02,10.15Z"/>
  <path class="cls-5" d="m770.41,356.56l-12.63,26.01c3.84-.47,6.31,1.83,6.31,1.83l9.19-26.36"/>
  <path class="cls-5" d="m783.46,378.07l-18.41,7.19c4.07,4.29,2.8,9.06,2.8,9.06l15.98-10.12s.21-4.51-.37-6.13Z"/>
  <path class="cls-5" d="m779.18,408.58l-15.45-7.26s2.97-2.4,3.55-4.7l13.09,8.38-1.18,3.58Z"/>
  <path class="cls-5" d="m772.05,424.12l-10.47-21.69c-1.58.73-4.66.19-4.66.19l12.49,25.06s1.68-2,2.64-3.56Z"/>
  <path class="cls-5" d="m750.05,402.87l2.68-5.32s.67,2.28,2.58,4.46l-4.45,7.49s-.44-4.15-.8-6.63Z"/>
  <path class="cls-5" d="m750.23,384.2l2.49,3.27c1.1-3.04,3.26-4.34,3.26-4.34l-4.99-4.46s-.84,2.39-.76,5.53Z"/>
  <path class="cls-5" d="m766.82,450.18s-24.5.75-39.83-2.13c-.91-.17-1.75-.54-2.49-1.09-1.64-1.23-4.96-5.06-6.93-10.73l12.96-2.01s1.41-3.91,0-4.83-6.02-1.22-5.46-2.64c0,0,3.44-3.49,3.84-4.06s2.95-4.66,3.37-7.19,5.6-29.99,8.22-36.16c0,0-5.09,12.52,2.53,42.25,0,0,10.49,30.87,23.79,28.6Z"/>
  <line class="cls-5" x1="803.03" y1="392.55" x2="789.52" y2="402.87"/>
  <g>
    <path class="cls-6" d="m201.92,369.34h-.17s.11.13.62.82c.81,1.1,1.99,1.04,1.99,1.04l-.05,1.75-4.04-.11-2.62-3.44-2.86-.08-.02.67c0,.22-.14.93.74.96l-.05,1.75-4.85-.14s.05-1.74.05-1.74c.94.03.97-1.09.97-1.09l.08-2.84c.04-1.45-.9-1.45-.9-1.45l.05-1.77,10.22.29s2.72-.06,2.65,2.64-1.81,2.74-1.81,2.74h0Zm-1.91-2.15s.51.05.52-.45-.49-.46-.49-.46l-5.13-.14-.02.91,5.12.14Zm-2.11-8.11l-.03.9,2.61.07-.09,3.27,1.78.05.09-3.27,2.42.07.03-.9-6.82-.19h0Zm-7.64,2.13c-.06,1.96,2.03,1.88,2.61,1.9l4.38.12.07-2.61-3.27-.09-.02.61,1.51.04-.04,1.26-2.63-.07s-.93-.04-.89-1.28.97-1.25.97-1.25l4.38.12.03-.9-4.38-.12s-2.65-.25-2.71,1.67l-.02.6h0Z"/>
    <path class="cls-7" d="m201.12,368.91h-.38s.6.67,1.27,1.58c.73,1,1.92,1.2,1.92,1.2l-.02.68-3.44-.1-2.61-3.46-3.45-.1-.04,1.53s-.03,1.17.71,1.2l-.02.68-3.98-.11s.02-.68.02-.68c.88.02.91-1.15.91-1.15l.1-3.69c.04-1.27-.84-1.46-.84-1.46l.02-.72,9.57.27s2.46-.13,2.39,2.23c-.06,2.3-2.13,2.1-2.13,2.1h0Zm-.98-1.16s.78.02.81-1.01-.78-1.04-.78-1.04l-5.68-.16-.06,2.04,5.7.16h0Z"/>
  </g>
  <path class="cls-5" d="m791.14,375.91s-.77-27.3-4.95-31.39c0,0-2.01-5.48-5.69-7.54s-5.68-3.53-11.37-2.63-12.49,8.79-12.49,8.79l-6.42,10.45s7.12-8.29,12.01-10.06c0,0,2.94-2.89,10.12-1.39s10,7.4,10,7.4c0,0,3.38,4.14,5.11,10.43s3.66,15.92,3.66,15.92Z"/>
  <path class="cls-3" d="m619.99,211.86s-39.15-98.5-157.63-102.49c0,0-80.08-2.43-131.59,56.64-52.32,60-46.52,119.79-46.52,119.79l27.99-4.55s-1.4-6.97-1.12-10.53c0,0,0-6.43,7.4-8.57,0,0,1.79-1.2,8.68-.49,0,0,4.48.36,6.86,3.41,0,0,48.23-32.96,60.01-39.45s26.58-14.75,39.12-15.42,133-6.59,186.8,1.67Z"/>
</svg>